<svg width="249" height="50" viewBox="0 0 249 50" fill="none" xmlns="http://www.w3.org/2000/svg">
<path d="M5.04688 3.03125V37.8796H63.932V9.70822L55.3649 3.03125H5.04688Z" fill="url(#paint0_linear_111_26841)"/>
<path d="M247.318 50.0001H130.333L120.303 41.3563H1.68262V38.177H2.66384V40.4621H120.63L130.769 49.1059H246.336V37.8789H247.318V50.0001Z" fill="#44EEFA"/>
<path d="M247.318 42.424H246.336V9.47971H67.8612L56.7406 0.84472H2.66384V39.2329H1.68262V0H57.1767L68.1883 8.63499H247.318V42.424Z" fill="#44EEFA"/>
<path d="M62.25 1.51562L68.9379 7.5762H247.318L240.63 1.51562H62.25Z" fill="url(#paint1_linear_111_26841)"/>
<path d="M119.705 43.9385H1.68262L8.16012 48.4839H126.183L119.705 43.9385Z" fill="url(#paint2_linear_111_26841)"/>
<path d="M246.821 10.6432V38.5922H246.603C246.603 38.5922 246.603 48.7642 246.603 48.479L249 46.7678V12.3544L246.821 10.6432ZM0 38.307L2.39739 40.0182C2.39739 40.0182 2.39739 1.23175 2.39739 1.51695L0 3.22813V38.307Z" fill="#44EEFA"/>
<path opacity="0.3" d="M122.817 40.9092L130.654 48.4849H243.953V40.9092H122.817Z" fill="url(#paint3_radial_111_26841)"/>
<defs>
<linearGradient id="paint0_linear_111_26841" x1="-350.829" y1="28984.6" x2="1911.99" y2="31667.5" gradientUnits="userSpaceOnUse">
<stop offset="0.02" stop-color="#8F68FF"/>
<stop offset="1" stop-color="#44DFFA"/>
</linearGradient>
<linearGradient id="paint1_linear_111_26841" x1="72630.3" y1="2246.04" x2="103871" y2="2246.04" gradientUnits="userSpaceOnUse">
<stop stop-color="#44EEFA"/>
<stop offset="0.99" stop-color="#8F68FF"/>
</linearGradient>
<linearGradient id="paint2_linear_111_26841" x1="41902.2" y1="1925.7" x2="56022.6" y2="1925.7" gradientUnits="userSpaceOnUse">
<stop offset="0.02" stop-color="#8F68FF"/>
<stop offset="1" stop-color="#44DFFA"/>
</linearGradient>
<radialGradient id="paint3_radial_111_26841" cx="0" cy="0" r="1" gradientUnits="userSpaceOnUse" gradientTransform="translate(70768.7 67438.5) scale(17583.9 1099.68)">
<stop offset="0.01" stop-color="#8884FF"/>
<stop offset="1" stop-color="#38217C"/>
</radialGradient>
</defs>
</svg>
